<?xml version="1.0" encoding="UTF-8"?><svg id="Layer_2" xmlns="http://www.w3.org/2000/svg" xmlns:xlink="http://www.w3.org/1999/xlink" viewBox="0 0 725.67 543.96"><defs><style>.cls-1{fill:none;}.cls-2{clip-path:url(#clippath);}.cls-3{fill:#fffaf6;}.cls-4{fill:#fffaf6;}</style><clipPath id="clippath"><rect class="cls-1" width="725.67" height="543.96"/></clipPath></defs><g id="Layer_1-2"><g class="cls-2"><path class="cls-3" d="M706.07,534.17c-2.22-2.25-3.33-4.97-3.33-8.14v-89.91c-26.91,40.99-40.54,61.7-40.89,62.12l-.53,.53c-2.04,1.97-4.47,3.06-7.29,3.28h-.85c-1.76,0-3.38-.35-4.86-1.06-.99-.49-1.9-1.13-2.75-1.9-.28-.21-.58-.51-.9-.9-.32-.39-13.93-21.08-40.83-62.07v89.91c0,3.17-1.13,5.88-3.38,8.14-2.26,2.26-4.97,3.38-8.14,3.38s-5.88-1.13-8.14-3.38c-2.26-2.25-3.38-4.97-3.38-8.14v-128.47c0-3.17,1.12-5.88,3.38-8.14,2.25-2.25,4.97-3.38,8.14-3.38,4.23,0,7.54,1.9,9.93,5.71l51.03,77.86,51.03-77.86c2.39-3.8,5.71-5.71,9.93-5.71,3.17,0,5.86,1.13,8.08,3.38,2.22,2.26,3.33,4.97,3.33,8.14v128.47c0,3.17-1.11,5.88-3.33,8.14-2.22,2.26-4.91,3.38-8.08,3.38s-5.97-1.13-8.19-3.38m-256.68,3.38c-3.17,0-5.88-1.13-8.14-3.38-2.26-2.25-3.38-4.97-3.38-8.14v-128.47c0-3.17,1.13-5.88,3.38-8.14s4.97-3.38,8.14-3.38h100.9c3.17,0,5.88,1.13,8.14,3.38,2.25,2.26,3.38,4.97,3.38,8.14s-1.13,5.88-3.38,8.14c-2.26,2.25-4.97,3.38-8.14,3.38h-89.38v41.2h64.98c3.17,0,5.88,1.13,8.14,3.38,2.25,2.25,3.38,4.97,3.38,8.13s-1.13,5.88-3.38,8.14c-2.26,2.25-4.97,3.38-8.14,3.38h-64.98v41.2h89.38c3.17,0,5.88,1.13,8.14,3.38,2.25,2.25,3.38,4.97,3.38,8.14s-1.13,5.88-3.38,8.14c-2.26,2.26-4.97,3.38-8.14,3.38h-100.9Zm-163.86,0c-3.17,0-5.88-1.13-8.14-3.38-2.26-2.25-3.38-4.97-3.38-8.14v-128.47c0-3.17,1.13-5.88,3.38-8.14,2.25-2.25,4.97-3.38,8.14-3.38h60.85c19.93,0,36.98,7.12,51.14,21.34,14.23,14.16,21.34,31.2,21.34,51.13v6.66c0,19.86-7.1,36.89-21.29,51.08-14.19,14.19-31.26,21.29-51.19,21.29h-60.85Zm95.77-37.51c9.68-9.65,14.53-21.27,14.53-34.86v-6.66c0-13.59-4.84-25.23-14.53-34.92-9.69-9.68-21.33-14.53-34.92-14.53h-49.34v105.44h49.34c13.59,0,25.23-4.82,34.92-14.47m-145.9,34.12c-2.22-2.25-3.33-4.97-3.33-8.14v-128.47c0-3.17,1.11-5.88,3.33-8.14,2.22-2.25,4.95-3.38,8.19-3.38s5.86,1.13,8.08,3.38c2.22,2.26,3.33,4.97,3.33,8.14v128.47c0,3.17-1.11,5.88-3.33,8.14-2.22,2.26-4.91,3.38-8.08,3.38s-5.97-1.13-8.19-3.38"/><path class="cls-4" d="M72.19,201.78c-.55,.45-1.1,.89-1.64,1.33,.84,1.74,1.51,3.58,2.55,5.19,17.43,26.97,44.8,40.09,72.94,52.08,3,1.28,5.1,.6,6.29-2.87,1.39-4.08,2.66-7.41-2.41-10.33-26-14.98-51.83-30.24-77.73-45.4m260.66,52.01c-1.2-6.62-2.67-16.17-4.73-25.59-1.73-7.93-5.02-15.09-14.46-16.18-8.54-.99-19.5,7.83-24.74,18.53-4.24,8.65,.34,14.05,5.75,19.59,7.39,7.58,17.41,10.25,26.65,14.34,11.14,4.93,11.3,4.76,11.54-10.69m-186.61,42.95c-27.39,1.78-46.98,13.23-62.57,32.43-5.04,6.21-4.63,8.72,3.91,9.78,29.7,3.72,59.31,8.09,89,11.83,3.55,.45,9.46,4.95,10.83-2.41,1-5.38,1.74-11.25-5.53-14.65-12.55-5.87-21.19-15.99-25.95-28.88-2.3-6.23-5.61-8.97-9.69-8.1m-17.32,141.67v-.21c-16.69,0-33.38-.09-50.07,.08-3.23,.03-9.13-1.21-6.16,5.41,8.57,19.14,22.28,34.07,39.44,45.87,1.75,1.21,4.6,1.1,6.95,1.12,20.1,.13,40.2-.02,60.29,.31,6.13,.1,8.56-1.83,8.37-8.14-.36-11.91-.42-23.85,0-35.75,.23-6.65-1.99-8.97-8.74-8.81-16.68,.39-33.38,.13-50.08,.13m-3.73-25.49h35.75c28.18,0,28.01,0,26.83-28.4-.23-5.69-2.34-7.65-7.62-8.32-35.45-4.47-70.89-9.05-106.31-13.81-5.63-.76-7.74,1.27-9.07,6.59-2.93,11.71-3.29,23.51-3.1,35.46,.11,6.66,2.92,8.7,9.37,8.59,18.04-.33,36.09-.11,54.13-.11M19.19,45.06c.39,5.24,.81,11.71,1.35,18.17,2.91,35.16,16.07,64.55,46.88,84.29,14.36,9.2,27.99,19.59,42.65,28.26,21.87,12.92,42.59,27.81,65.66,38.75,4.88,2.31,8.85,3.76,14.3,1.27,10.42-4.75,21.67-6.55,33.01-4.65,7.8,1.31,8.63-.86,6.33-7.74-11.95-35.7-27.01-69.9-46.35-102.3-19.01-31.85-45.86-53.61-80.58-66.04-19.01-6.81-38.48-11.92-58.56-14.24-29.07-3.36-24.95-6.62-24.7,24.24M296.7,184.72c1.42,0,8.13-3.45,9.31-3.81,22.51-6.96,37.48,4.24,43.3,26.78,8.35,32.34,4.4,65.14,2.3,97.79-.5,7.83-5.53,3.73-8.71,1.96-17.34-9.68-35.14-18.15-54.53-23.03-5.39-1.36-7.94-.23-10.11,4.98-10.83,26.01-30.43,42.58-57.34,49.78-9.1,2.43-10.63,6.91-10.6,15.1,.24,60.07-.06,120.14,.24,180.2,.04,8.77-1.37,11.19-10.63,8.33-29.34-9.05-59.04-16.87-86.73-30.68-81.99-40.9-95.35-161.07-23.79-214.8,14.01-10.52,29.86-16.24,49.31-19.13-7.44-3.6-13.07-6.36-18.73-9.04-20.55-9.73-39.43-21.79-54.4-39.22-10.97-12.78-17.98-27.29-18.81-44.38-.22-4.56,.09-9.13,4.39-11.86,4.77-3.03,9.1-.8,13.31,1.8,25.86,15.93,51.53,32.17,78.79,45.67,2.34,1.16,4.72,2.23,8.13,1.57-7.22-4.35-14.41-8.73-21.65-13.04-28.06-16.68-55.68-34-82.11-53.24C22.92,138.45,10.54,113.56,4.75,84.51,.13,61.26-.68,37.76,.47,14.17,1.06,2.07,3.43-.15,15.31,0,62.64,.64,107.25,11.54,147.92,36.31c26.75,16.3,43.86,41.33,59.14,67.74,18.53,32.02,31.9,66.27,43.34,101.34,1.08,3.32,.82,8.4,5.74,8.45,3.86,.05,4.74-4.33,6.36-7.2,15.27-27.05,15.08-29.4,35.59-55.56,10.52-9.07,21.84-16.47,36.79-14.98,13.54,1.35,24.05,10.76,26.82,24.32,2.74,13.45-7.39,.23-11.06-7.08-3.4-6.77-19.75-7.47-26.16-5.41-14.06,4.52-23.13,21.66-27.78,36.8"/><path class="cls-3" d="M289.86,371.56c-1.06-11.92-2.16-23.83-3.17-35.75-.16-1.86-.82-2.94-2.4-3.73-9.17-4.56-18.33-9.15-27.4-13.92-1.59-.84-2.43-.59-3.47,.63-.69,.81-1.51,1.55-2.4,2.09-1.57,.96-1.96,2.24-1.76,4.2,.71,6.76,1.24,13.54,1.87,20.32,.28,3.05-.42,5.34-2.91,7.2-9.53,7.1-5.58,4.11-15.01,11.38l7.78,2.5c2.61-2.02,14.08-9.64,16.73-11.58,1.39-1.02,1.73-2.24,1.54-3.99-.79-7.32-1.49-14.65-2.25-21.97-.14-1.34-.02-1.93,1.4-1.19,5.86,3.04,11.74,6.02,17.63,8.96,2.31,1.15,3.45,3.02,3.62,5.74,.16,2.51,.42,5.02,.67,7.53,1.61,16.79,1.45,15.72,3.11,32.5l6.42-10.91Z"/></g></g></svg>